<?xml version="1.0" standalone="no"?>
<!DOCTYPE svg PUBLIC "-//W3C//DTD SVG 20010904//EN"
 "http://www.w3.org/TR/2001/REC-SVG-20010904/DTD/svg10.dtd">
<svg version="1.0" xmlns="http://www.w3.org/2000/svg"
 width="980.000000pt" height="826.000000pt" viewBox="0 0 980.000000 826.000000"
 preserveAspectRatio="xMidYMid meet">

<g transform="translate(0.000000,826.000000) scale(0.100000,-0.100000)"
fill="#fff" stroke="none">
<path d="M363 8211 c-177 -94 -226 -143 -312 -311 l-51 -98 0 -2979 0 -2979
44 -90 c80 -164 135 -220 304 -311 l116 -63 1381 0 1381 0 41 143 c23 78 40
143 40 143 -1 1 -381 5 -844 9 l-842 8 -6 21 c-67 239 -171 469 -283 626 -97
136 -255 293 -377 373 -198 129 -395 219 -564 258 l-91 22 0 1847 0 1847 129
37 c153 44 223 71 351 137 206 107 416 289 552 480 93 129 186 316 242 487
l48 142 3298 0 3298 0 51 -152 c61 -178 110 -287 176 -390 156 -241 426 -481
670 -598 46 -22 151 -63 234 -91 l151 -51 0 -1847 0 -1847 -117 -38 c-239 -78
-354 -134 -518 -256 -314 -232 -515 -536 -629 -951 l-16 -56 -777 -7 c-758 -6
-1001 -12 -1021 -25 -7 -4 4 -55 31 -139 l41 -132 1424 0 1424 0 103 55 c56
30 121 70 144 88 57 46 116 127 167 231 l44 90 0 2979 0 2979 -51 98 c-86 169
-149 230 -326 319 l-83 41 -4442 0 -4443 0 -92 -49z"/>
<path d="M2310 6835 l0 -145 2600 0 2600 0 0 145 0 145 -2600 0 -2600 0 0
-145z"/>
<path d="M2310 5915 l0 -145 2600 0 2600 0 0 145 0 145 -2600 0 -2600 0 0
-145z"/>
<path d="M4579 5160 c-10 -6 -44 -54 -77 -107 -75 -123 -89 -135 -155 -141
-43 -3 -69 2 -146 32 -51 20 -103 36 -115 36 -46 0 -82 -69 -95 -179 -16 -142
-54 -172 -238 -181 -159 -7 -168 -14 -159 -115 4 -38 10 -97 13 -131 4 -48 1
-70 -15 -107 -24 -54 -54 -75 -164 -113 -44 -16 -90 -39 -104 -52 -41 -41 -34
-66 61 -219 60 -96 32 -182 -88 -267 -120 -85 -116 -142 15 -249 33 -27 68
-63 79 -80 29 -49 25 -111 -13 -177 -85 -148 -89 -159 -72 -191 18 -35 65 -66
114 -75 55 -10 124 -49 160 -90 36 -41 35 -20 14 -265 -6 -75 -6 -77 19 -94
20 -13 53 -17 151 -18 l125 -2 36 -35 c51 -49 56 -60 70 -173 15 -112 28 -134
86 -143 26 -4 54 1 100 21 82 34 174 43 216 22 40 -21 87 -76 119 -140 38 -76
61 -97 104 -97 37 0 97 35 130 75 8 10 35 31 59 47 79 50 165 33 241 -47 66
-70 145 -93 190 -57 12 9 38 51 58 91 49 99 91 133 172 139 51 4 71 0 123 -24
79 -35 147 -38 178 -8 16 17 24 44 34 122 14 108 20 125 57 159 45 43 91 54
204 51 102 -3 106 -2 126 22 19 23 20 32 12 115 -21 227 2 273 163 325 76 25
121 53 133 84 10 26 -7 68 -61 154 -42 66 -57 120 -45 165 3 14 53 75 111 137
58 62 105 117 105 123 0 7 -45 55 -100 107 -150 144 -158 180 -69 315 63 96
73 143 36 177 -14 13 -65 36 -113 52 -153 51 -186 104 -164 266 25 195 21 200
-157 200 -122 0 -122 0 -157 30 -44 39 -72 99 -81 175 -11 90 -48 155 -91 155
-12 0 -63 -16 -113 -35 -122 -47 -168 -47 -221 2 -23 20 -59 67 -82 105 -43
73 -88 118 -118 118 -18 0 -61 -28 -170 -112 -53 -41 -69 -48 -107 -48 -54 0
-69 8 -158 81 -90 74 -130 90 -166 69z m604 -614 c186 -50 342 -141 481 -280
365 -364 426 -903 154 -1347 -67 -109 -225 -269 -331 -334 -102 -63 -239 -121
-346 -147 -109 -27 -324 -29 -446 -3 -422 88 -721 369 -842 795 -31 107 -42
329 -23 447 63 394 347 725 730 852 131 43 187 51 360 47 140 -3 180 -7 263
-30z"/>
<path d="M4842 4268 c-27 -51 -71 -136 -97 -188 -26 -52 -64 -124 -85 -160
l-38 -66 -254 -38 c-286 -43 -298 -45 -298 -56 0 -5 90 -101 201 -214 l201
-206 -46 -267 c-26 -148 -49 -276 -52 -285 -3 -10 -2 -18 3 -18 4 0 125 60
268 134 l260 134 120 -65 c158 -85 355 -181 380 -185 13 -2 19 2 18 12 -2 8
-23 134 -48 280 l-45 265 212 212 c117 117 209 213 205 213 -21 0 -535 82
-557 89 -20 6 -49 54 -150 251 -69 134 -131 245 -137 247 -6 2 -33 -38 -61
-89z"/>
<path d="M3650 1688 c-284 -893 -438 -1393 -430 -1396 5 -2 131 58 282 133
195 97 281 135 302 133 26 -3 39 -22 146 -216 126 -225 189 -327 204 -327 12
0 18 19 191 560 183 575 325 1032 325 1050 0 17 -22 25 -68 25 -52 0 -131 40
-174 88 -21 23 -53 73 -72 111 l-35 69 -72 -35 c-101 -51 -186 -57 -264 -18
-83 40 -133 115 -155 232 -5 31 -14 61 -18 65 -5 5 -78 -209 -162 -474z"/>
<path d="M5920 1953 c-24 -33 -55 -58 -100 -81 -57 -30 -72 -33 -125 -30 -35
3 -87 16 -125 32 -36 15 -72 30 -80 32 -11 4 -24 -13 -45 -58 -35 -74 -94
-142 -147 -169 -57 -29 -146 -35 -208 -15 -29 10 -55 15 -58 12 -3 -4 32 -126
77 -274 88 -281 387 -1232 422 -1340 l21 -63 25 23 c14 13 91 122 171 243 80
121 147 222 149 224 1 2 136 -44 299 -103 163 -58 299 -105 301 -102 8 8 -526
1716 -537 1716 -3 0 -21 -21 -40 -47z"/>
</g>
</svg>
