<svg xmlns="http://www.w3.org/2000/svg" id="svg" version="1.1" style="display: block;" viewBox="0 0 1080 1080"><path d="M0 0 C356.4 0 712.8 0 1080 0 C1080 356.4 1080 712.8 1080 1080 C723.6 1080 367.2 1080 0 1080 C0 723.6 0 367.2 0 0 Z " transform="translate(0,0)" style="fill: #081730 ;"/><path d="M0 0 C5.92387333 2.19773919 11.20326057 2.67534616 17.48703003 2.67555237 C18.4729866 2.68798981 19.45894318 2.70042725 20.47477722 2.71324158 C22.57853947 2.73906624 24.68238261 2.75889665 26.78625488 2.7731781 C32.30548705 2.81286995 37.82387595 2.90289667 43.34249878 2.99195862 C44.98402168 3.0173597 44.98402168 3.0173597 46.65870667 3.04327393 C60.82578142 3.2834682 74.92415239 4.15734258 89.04953003 5.23414612 C89.97717163 5.29682678 90.90481323 5.35950745 91.86056519 5.42408752 C151.86103939 9.49911495 151.86103939 9.49911495 165.63243675 25.01790047 C167.27975456 27.59420295 167.4342664 28.97088089 167.45739746 32.00267029 C167.47163757 32.95871155 167.48587769 33.91475281 167.50054932 34.89976501 C167.50086655 36.46303024 167.50086655 36.46303024 167.50119019 38.05787659 C167.51287231 39.16072998 167.52455444 40.26358337 167.53659058 41.39985657 C167.57022173 45.05043695 167.58091795 48.7006119 167.58859253 52.35133362 C167.60076928 54.88715256 167.61325515 57.42297004 167.6260376 59.95878601 C167.64852692 65.27668713 167.65814506 70.5944362 167.66036987 75.91236877 C167.66340427 82.05211247 167.70384686 88.19084896 167.76151812 94.33030021 C167.81510693 100.24417837 167.82995079 106.15775317 167.8304863 112.07188797 C167.83587549 114.58454058 167.85276168 117.09719572 167.88133621 119.60969162 C167.91797824 123.12455056 167.91037247 126.63668486 167.89181519 130.15162659 C167.91226898 131.18975494 167.93272278 132.2278833 167.95379639 133.29747009 C167.85374984 140.1904317 167.85374984 140.1904317 165.53875351 143.19482803 C162.11605198 146.20566498 158.49245374 148.26255479 154.23703003 149.92164612 C152.83517456 150.4843219 152.83517456 150.4843219 151.40499878 151.05836487 C143.78548943 153.72829771 136.17609397 155.77470318 128.23703003 157.23414612 C127.33033569 157.40220764 126.42364136 157.57026917 125.48947144 157.74342346 C95.86401893 163.13219553 66.44404018 164.57937056 36.39743042 164.49488831 C32.3047035 164.48348512 28.21223642 164.49029123 24.11951828 164.50175667 C-0.28275479 164.5599592 -24.44714138 163.85711775 -48.57546997 159.85914612 C-49.24771606 159.75021027 -49.91996216 159.64127441 -50.61257935 159.52903748 C-60.5329293 157.91981483 -70.34240169 156.22788618 -79.95046997 153.23414612 C-80.63512329 153.02709045 -81.31977661 152.82003479 -82.025177 152.60670471 C-84.20109904 151.93437747 -86.35719845 151.21832588 -88.51296997 150.48414612 C-89.15685669 150.28055481 -89.80074341 150.0769635 -90.46414185 149.86720276 C-96.05465726 147.82929891 -99.81325525 144.26653474 -102.95046997 139.23414612 C-103.90845988 135.54575085 -103.89021573 132.02714009 -103.82449341 128.23170471 C-103.83354706 127.15752792 -103.84260071 126.08335114 -103.85192871 124.97662354 C-103.87245565 121.44439715 -103.8424803 117.91468805 -103.80984497 114.38258362 C-103.80948106 111.91974309 -103.81148999 109.45690117 -103.81576538 106.99406433 C-103.81705825 101.84100396 -103.79412906 96.68879789 -103.75320435 91.53590393 C-103.70207827 84.9336131 -103.70434125 78.3326633 -103.7238121 71.73024559 C-103.73411079 66.64808003 -103.71968668 61.56622242 -103.69742584 56.48410416 C-103.6890669 54.04966729 -103.68757041 51.61519679 -103.69307709 49.1807518 C-103.6963611 45.77908882 -103.66722169 42.37921746 -103.62918091 38.97779846 C-103.63964951 37.47211052 -103.63964951 37.47211052 -103.65032959 35.93600464 C-103.56813595 31.43355185 -103.44866485 28.24136919 -100.54891968 24.65885925 C-90.4067023 15.19476702 -74.38106959 12.59183938 -61.20046997 10.23414612 C-60.51357086 10.10852295 -59.82667175 9.98289978 -59.11895752 9.85346985 C-40.54004323 6.48859465 -21.74719916 4.85799694 -2.95046997 3.23414612 C-7.61030526 2.200159 -12.27760128 1.20748701 -16.95046997 0.23414612 C-17.91130493 0.02580139 -18.87213989 -0.18254333 -19.86209106 -0.39720154 C-28.5236931 -2.0831619 -37.16396139 -2.13810318 -45.95681763 -2.13645935 C-48.55043296 -2.14081187 -51.14231236 -2.1771889 -53.73562622 -2.21507263 C-72.91942535 -2.3426207 -93.36163628 0.70417939 -107.95046997 14.23414612 C-115.69888494 24.12908145 -114.90456498 38.18912709 -115.64212036 50.13722229 C-118.39928326 94.68169421 -118.39928326 94.68169421 -130.19265747 106.69117737 C-136.42941724 112.1656665 -142.80866785 117.00196709 -149.95046997 121.23414612 C-148.82846642 117.86813548 -147.94631794 117.17171361 -145.26296997 114.98414612 C-138.88374896 109.48872482 -134.65776636 104.13281571 -130.76296997 96.67164612 C-130.42974731 96.05362122 -130.09652466 95.43559631 -129.75320435 94.79884338 C-122.95144246 81.17992326 -123.32664879 65.80450668 -122.8664856 50.96290588 C-121.83226276 19.24386596 -121.83226276 19.24386596 -111.05203247 8.30836487 C-82.18823019 -15.88787087 -32.98232167 -12.95053985 0 0 Z " transform="translate(505.9504699707031,269.76585388183594)" style="fill: #BA3C2F;"/><path d="M0 0 C26.61095043 -0.28613925 52.24608136 0.25014922 72.71484375 19.6484375 C82.75157801 29.97683754 87.61131746 41.10171679 91 55 C91.22816406 55.92039062 91.45632813 56.84078125 91.69140625 57.7890625 C95.19663611 74.80045776 92.89512249 92.59987881 90.47949219 109.58789062 C89.65731025 115.43861098 88.89874416 121.29758573 88.13977051 127.1567688 C87.88338415 129.12319539 87.62099235 131.08883609 87.35839844 133.05444336 C82.47082544 166.44016231 82.47082544 166.44016231 93.25 197.1875 C103.16095657 207.32370558 115.34696526 208.75881502 129 210 C129 219.57 129 229.14 129 239 C126.31875 239.185625 123.6375 239.37125 120.875 239.5625 C110.06403932 240.60808741 100.43994335 243.83227941 92.8125 252 C78.78985741 270.26122473 86.12985895 302.89249694 88.875 323.9375 C89.77389034 330.77028809 90.70615326 337.5983421 91.64599609 344.42559814 C94.3582045 364.14943232 94.3582045 364.14943232 94.25 373.25 C94.24468262 374.09208008 94.23936523 374.93416016 94.23388672 375.80175781 C94.13456509 382.34692741 93.45537285 388.6085724 92 395 C91.86722656 395.68578125 91.73445312 396.3715625 91.59765625 397.078125 C88.12955045 413.32867789 78.82480984 426.43053443 65.32421875 435.87109375 C54.70310036 442.55420613 42.36770522 446.15663319 30 448 C29.28714844 448.11085938 28.57429687 448.22171875 27.83984375 448.3359375 C18.96292896 449.4626814 9.92339895 449.06284084 1 449 C1 438.77 1 428.54 1 418 C11.9375 417.1875 11.9375 417.1875 15.32788086 416.95385742 C25.37518319 416.14122756 36.41756951 413.6692683 43.7578125 406.21484375 C52.59621313 395.04470426 54.38727351 382.26724878 54.3125 368.375 C54.30903564 367.3025 54.30557129 366.23 54.30200195 365.125 C54.08852925 348.93409787 51.78457766 332.87789019 48.6484375 317.01171875 C46.87404658 306.98796651 46.79291733 296.77494772 46.75 286.625 C46.729375 285.41328125 46.70875 284.2015625 46.6875 282.953125 C46.6142579 265.77785148 50.57970385 250.79797286 62.64453125 238.1875 C69.13976718 232.1554401 77.8917019 226 87 226 C87 225.34 87 224.68 87 224 C85.0509375 223.6596875 85.0509375 223.6596875 83.0625 223.3125 C71.80399628 220.74415384 62.40540374 213.06253669 55.6875 203.8125 C49.41926421 193.69784679 46.86561014 182.44590568 46.796875 170.69140625 C46.78999664 169.8959137 46.78311829 169.10042114 46.77603149 168.28082275 C46.7588585 165.7080019 46.75256866 163.13537524 46.75 160.5625 C46.74832825 159.68717621 46.74665649 158.81185242 46.74493408 157.91000366 C46.74334717 144.06147559 47.56016699 130.65439538 50 117 C50.20109375 115.78054688 50.4021875 114.56109375 50.609375 113.3046875 C50.91372776 111.46473674 51.22933231 109.62648502 51.5703125 107.79296875 C52.90716949 99.10339829 53.21045854 90.47064769 53.25 81.6875 C53.270625 80.55376953 53.29125 79.42003906 53.3125 78.25195312 C53.36586235 66.54558687 51.55624804 55.85511968 45 46 C44.443125 45.113125 43.88625 44.22625 43.3125 43.3125 C31.47869063 31.47869063 15.64953348 31.55891191 0 31 C0 20.77 0 10.54 0 0 Z " transform="translate(739,248)" style="fill: #ffffff;"/><path d="M0 0 C4.2075 0.04125 8.415 0.0825 12.75 0.125 C12.75 10.355 12.75 20.585 12.75 31.125 C9.6975 31.228125 6.645 31.33125 3.5 31.4375 C-10.25362218 32.07130747 -21.73081747 33.9794055 -31.5625 44.375 C-38.91341161 53.6399994 -40.64491307 66.19433886 -40.625 77.6875 C-40.62483887 78.59862549 -40.62467773 79.50975098 -40.62451172 80.44848633 C-40.37385833 96.55758364 -38.19986004 113.11610255 -35.1796875 128.92578125 C-30.75427613 152.55130906 -29.21090596 183.52558164 -43.25 204.125 C-50.42421592 214.38345827 -60.9281046 219.42316828 -72.25 224.125 C-70.3628125 224.681875 -70.3628125 224.681875 -68.4375 225.25 C-55.64111874 229.57582071 -46.21103925 236.59991654 -39.5625 248.43359375 C-26.12101515 275.99663858 -32.62627447 310.40665014 -37.34765625 339.3671875 C-40.52361349 359.24206187 -42.89583656 383.87714988 -31.9765625 401.7890625 C-26.01274894 409.85775144 -18.0703451 414.40537757 -8.25 416.125 C-6.41252459 416.26582902 -4.57192549 416.36939398 -2.73046875 416.44140625 C-1.80903076 416.47951416 -0.88759277 416.51762207 0.06176758 416.55688477 C1.79463013 416.62153931 1.79463013 416.62153931 3.5625 416.6875 C7.254375 416.831875 10.94625 416.97625 14.75 417.125 C14.75 427.685 14.75 438.245 14.75 449.125 C-11.15203055 449.51159747 -38.16334553 448.25181554 -58.0871582 429.43505859 C-65.49558073 422.11167702 -70.61702579 413.85886538 -74.25 404.125 C-74.84167969 402.57619141 -74.84167969 402.57619141 -75.4453125 400.99609375 C-83.00056744 376.93022925 -78.2161865 347.93587524 -74.75 323.5 C-72.79217737 309.63649922 -71.07245748 295.96759481 -71.0625 281.9375 C-71.05025391 281.01775391 -71.03800781 280.09800781 -71.02539062 279.15039062 C-71.00004025 267.22726528 -73.68078411 256.82456869 -82.25 248.125 C-92.45473712 241.00380811 -103.12206091 239.61902148 -115.25 238.125 C-115.25 228.885 -115.25 219.645 -115.25 210.125 C-113.043125 209.898125 -110.83625 209.67125 -108.5625 209.4375 C-96.4180745 207.93741588 -85.222889 203.92745692 -77 194.5625 C-64.20008524 169.41981029 -72.50313201 136.00171527 -77.25 109.39453125 C-79.24519527 97.92758948 -79.56432385 86.61474411 -79.625 75 C-79.63294586 74.1958667 -79.64089172 73.3917334 -79.64907837 72.56323242 C-79.71956475 63.3030989 -79.43047824 54.94422152 -76.25 46.125 C-75.87359375 45.02027344 -75.4971875 43.91554688 -75.109375 42.77734375 C-68.40724466 26.37600366 -57.34185029 14.52958328 -41.25 7.125 C-27.79632542 1.4824681 -14.52886312 -0.20344009 0 0 Z " transform="translate(324.25,247.875)" style="fill: #ffffff;"/><path d="M0 0 C5.92387333 2.19773919 11.20326057 2.67534616 17.48703003 2.67555237 C18.4729866 2.68798981 19.45894318 2.70042725 20.47477722 2.71324158 C22.57853947 2.73906624 24.68238261 2.75889665 26.78625488 2.7731781 C32.30548705 2.81286995 37.82387595 2.90289667 43.34249878 2.99195862 C44.98402168 3.0173597 44.98402168 3.0173597 46.65870667 3.04327393 C60.82578142 3.2834682 74.92415239 4.15734258 89.04953003 5.23414612 C89.97717163 5.29682678 90.90481323 5.35950745 91.86056519 5.42408752 C151.83581566 9.49740184 151.83581566 9.49740184 165.63538074 25.01774979 C167.28627439 27.60519557 167.42043495 28.96266982 167.41029358 32.00508118 C167.41647957 33.43952827 167.41647957 33.43952827 167.42279053 34.9029541 C167.4120047 35.94520645 167.40121887 36.9874588 167.3901062 38.06129456 C167.39054428 39.16403214 167.39098236 40.26676971 167.39143372 41.40292358 C167.38934273 45.04996916 167.36599632 48.69655578 167.34249878 52.34352112 C167.33690395 54.87128956 167.33263332 57.39906125 167.32963562 59.92683411 C167.31934928 65.90146665 167.29570211 71.875902 167.26558715 77.85045552 C167.23204231 84.6532976 167.21555695 91.45614759 167.20050085 98.2590518 C167.16915239 112.25084117 167.11639244 126.24248462 167.04953003 140.23414612 C166.71953003 140.23414612 166.38953003 140.23414612 166.04953003 140.23414612 C165.55453003 88.25914612 165.55453003 88.25914612 165.04953003 35.23414612 C163.39953003 36.55414612 161.74953003 37.87414612 160.04953003 39.23414612 C123.76160548 58.65340286 73.64498723 56.78300851 33.47366333 56.55671692 C30.22464065 56.5432192 26.97575332 56.54857022 23.72671509 56.55358601 C-68.7308379 56.66105245 -68.7308379 56.66105245 -98.95046997 37.23414612 C-98.95046997 36.57414612 -98.95046997 35.91414612 -98.95046997 35.23414612 C-99.61046997 35.23414612 -100.27046997 35.23414612 -100.95046997 35.23414612 C-102.37709216 32.38090175 -102.26080865 30.39960063 -101.95046997 27.23414612 C-97.74382124 19.39448258 -87.26902909 16.81813913 -79.33718872 14.22657776 C-73.37301581 12.4788584 -67.3126741 11.32747289 -61.20046997 10.23414612 C-60.51357086 10.10852295 -59.82667175 9.98289978 -59.11895752 9.85346985 C-40.54004323 6.48859465 -21.74719916 4.85799694 -2.95046997 3.23414612 C-7.61030526 2.200159 -12.27760128 1.20748701 -16.95046997 0.23414612 C-17.91130493 0.02580139 -18.87213989 -0.18254333 -19.86209106 -0.39720154 C-28.5236931 -2.0831619 -37.16396139 -2.13810318 -45.95681763 -2.13645935 C-48.55043296 -2.14081187 -51.14231236 -2.1771889 -53.73562622 -2.21507263 C-72.91942535 -2.3426207 -93.36163628 0.70417939 -107.95046997 14.23414612 C-115.69888494 24.12908145 -114.90456498 38.18912709 -115.64212036 50.13722229 C-118.39928326 94.68169421 -118.39928326 94.68169421 -130.19265747 106.69117737 C-136.42941724 112.1656665 -142.80866785 117.00196709 -149.95046997 121.23414612 C-148.82846642 117.86813548 -147.94631794 117.17171361 -145.26296997 114.98414612 C-138.88374896 109.48872482 -134.65776636 104.13281571 -130.76296997 96.67164612 C-130.42974731 96.05362122 -130.09652466 95.43559631 -129.75320435 94.79884338 C-122.95144246 81.17992326 -123.32664879 65.80450668 -122.8664856 50.96290588 C-121.83226276 19.24386596 -121.83226276 19.24386596 -111.05203247 8.30836487 C-82.18823019 -15.88787087 -32.98232167 -12.95053985 0 0 Z " transform="translate(505.9504699707031,269.76585388183594)" style="fill: #AC2E21;"/><path d="M0 0 C7.2 5.4 7.2 5.4 9 9 C9.50789062 8.45730469 10.01578125 7.91460938 10.5390625 7.35546875 C16.64313703 1.01134634 21.48988119 -2.44155668 30.43359375 -3.0546875 C43.565406 -2.77486197 55.0250739 7.45172573 64 16 C65.34712679 17.19548025 66.70090475 18.38352502 68.0625 19.5625 C70.15486507 21.38011006 72.23108927 23.20936293 74.28515625 25.0703125 C81.58969414 32.3567667 81.58969414 32.3567667 91 35.375 C94.60172996 35.16800403 97.71479568 34.56438301 101 33 C102.33333333 31.16666667 102.33333333 31.16666667 103 29 C103.350625 28.4225 103.70125 27.845 104.0625 27.25 C105.45980692 23.89646338 105.63903303 20.60966975 106 17 C111.75963055 23.85670304 112.72645581 30.18779011 112.54296875 39.00390625 C111.68285576 47.89751785 106.49684257 56.74650524 99.87890625 62.609375 C87.37819998 71.86145698 72.45625436 73.0895404 57.375 71.3125 C39.80270195 68.50683897 22.88459014 62.52903893 11.49609375 48.09375 C10.375 46.4375 10.375 46.4375 9 44 C8.54173828 44.8353125 8.54173828 44.8353125 8.07421875 45.6875 C0.78831427 57.83751535 -12.59723244 65.17587488 -26.03759766 68.78564453 C-43.49191155 73.06300195 -62.21100514 74.31919063 -78.1171875 64.72265625 C-86.78442282 58.81912427 -91.39155282 49.99661879 -94 40 C-95.48544738 32.03133834 -92.12227737 25.21469093 -89 18 C-88.67 18 -88.34 18 -88 18 C-87.85304688 18.73605469 -87.70609375 19.47210937 -87.5546875 20.23046875 C-86.02749607 26.87462918 -84.80387762 30.29539726 -79 34 C-75.61185423 35.69407288 -72.62377434 35.7828776 -69 35 C-61.51239961 30.99089113 -55.46244426 24.72305526 -49.33789062 18.93652344 C-36.66744775 7.03293943 -18.20614449 -9.93062426 0 0 Z " transform="translate(529,555)" style="fill: #ffffff;"/><path d="M0 0 C24.20004561 5.97438073 45.70697618 5.9596528 69.90820312 0.14501953 C98.03529019 -6.55030383 125.43218836 -5.79500449 153.765625 -0.53515625 C154.62317383 -0.38079102 155.48072266 -0.22642578 156.36425781 -0.06738281 C168.41609203 2.11531078 168.41609203 2.11531078 169.765625 3.46484375 C169.85231932 4.95356235 169.87265994 6.44628875 169.86328125 7.9375 C169.86005859 8.83662109 169.85683594 9.73574219 169.85351562 10.66210938 C169.84513672 11.60763672 169.83675781 12.55316406 169.828125 13.52734375 C169.82361328 14.47673828 169.81910156 15.42613281 169.81445312 16.40429688 C169.8026261 18.7578744 169.78614525 21.11132852 169.765625 23.46484375 C168.59193359 23.6961499 168.59193359 23.6961499 167.39453125 23.93212891 C164.36219976 25.31095942 164.36219976 25.31095942 163.54296875 29.17333984 C163.24113051 30.77434791 162.96276461 32.37989062 162.703125 33.98828125 C162.46517212 35.27310898 162.46517212 35.27310898 162.22241211 36.58389282 C161.71566589 39.33254195 161.23845937 42.08517429 160.765625 44.83984375 C155.3241416 75.93165981 155.3241416 75.93165981 146.19921875 83.00390625 C136.10540074 89.06343745 124.38751832 91.60698871 112.765625 92.46484375 C112.10433594 92.51898437 111.44304687 92.573125 110.76171875 92.62890625 C94.9444255 93.28921071 79.51505475 88.05403773 67.765625 77.46484375 C57.31362958 65.81120895 51.04907473 48.30335442 45.7734375 33.72265625 C44.95226123 31.28585293 44.95226123 31.28585293 42.578125 30.21484375 C36.14071319 28.47893786 36.14071319 28.47893786 29.640625 29.40234375 C23.01776986 34.15352244 20.26781283 42.52002183 17.265625 49.83984375 C10.33906376 66.58107304 3.19030335 80.83606357 -14.296875 88.15234375 C-32.40757322 94.69862805 -52.83958661 93.78535397 -70.47265625 86.04296875 C-78.78711472 81.77010797 -82.21181697 77.53687283 -85.2265625 68.765625 C-87.17030295 62.39949833 -88.70994499 55.94197749 -90.234375 49.46484375 C-90.45222656 48.583125 -90.67007812 47.70140625 -90.89453125 46.79296875 C-92.00944591 42.13510307 -92.5989009 37.5434401 -93.015625 32.7734375 C-93.28067072 29.9762586 -93.72550364 27.22728829 -94.234375 24.46484375 C-95.03875 24.32046875 -95.843125 24.17609375 -96.671875 24.02734375 C-99.234375 23.46484375 -99.234375 23.46484375 -100.234375 22.46484375 C-100.32089111 21.04914252 -100.34142404 19.62924875 -100.33203125 18.2109375 C-100.32880859 17.35693359 -100.32558594 16.50292969 -100.32226562 15.62304688 C-100.31388672 14.72521484 -100.30550781 13.82738281 -100.296875 12.90234375 C-100.29236328 12.00064453 -100.28785156 11.09894531 -100.28320312 10.16992188 C-100.27137725 7.93483061 -100.2548972 5.69986938 -100.234375 3.46484375 C-92.57793213 1.33266979 -84.86080063 -0.2332541 -77.046875 -1.66015625 C-76.12116699 -1.83063477 -75.19545898 -2.00111328 -74.24169922 -2.17675781 C-49.7715918 -6.56714983 -24.12417382 -6.0164316 0 0 Z M-80.234375 9.46484375 C-88.45306932 20.41677591 -87.63869849 35.33684899 -85.8359375 48.33837891 C-83.44844681 61.2193503 -79.86543356 73.04735421 -68.8046875 80.99609375 C-54.74546561 89.02993483 -37.21288582 89.44985228 -21.85229492 85.36914062 C-9.13915913 81.56933795 -0.34629391 73.28679197 6.078125 61.90234375 C9.92789486 54.65506927 12.19071988 47.54975525 13.453125 39.46484375 C13.58267578 38.70945312 13.71222656 37.9540625 13.84570312 37.17578125 C15.63041665 27.37284252 15.63041665 27.37284252 12.640625 18.27734375 C12.04894531 17.35888672 12.04894531 17.35888672 11.4453125 16.421875 C1.68008356 5.04424779 -14.96709294 2.97133339 -29.171875 1.83984375 C-56.28323029 -0.60347329 -56.28323029 -0.60347329 -80.234375 9.46484375 Z M60.765625 14.46484375 C56.40164526 19.68033173 56.2144448 24.16432849 56.4453125 30.8671875 C58.03161555 48.68407909 63.89610019 65.58943517 77.765625 77.46484375 C89.9044313 87.50593007 106.8483043 87.5836428 121.765625 86.46484375 C131.95306006 85.24583443 140.14273069 80.88898221 147.015625 73.21484375 C154.38443607 62.5919993 156.93119401 47.23338416 157.015625 34.58984375 C157.03625 33.82542969 157.056875 33.06101562 157.078125 32.2734375 C157.1324391 24.2756861 154.72483807 17.84097484 149.765625 11.46484375 C139.04609414 1.22173648 125.04889593 1.08099819 110.9765625 1.3359375 C93.64721957 1.80611347 74.5770026 2.65926788 60.765625 14.46484375 Z " transform="translate(503.234375,450.53515625)" style="fill: #ffffff;"/><path d="M0 0 C40 0 40 0 46 6 C49.4369525 11.15542875 49.78039341 15.95419357 49 22 C46.61833933 28.17309357 42.4804705 31.56127341 37 35 C37.59167969 35.27972656 38.18335938 35.55945313 38.79296875 35.84765625 C44.58192662 38.78463161 47.72570107 41.37229871 51 47 C52.87456549 52.93813972 52.9781202 59.55933107 50.5 65.3125 C47.53850381 70.55615276 42.56447671 73.14517443 37 75 C24.79 75 12.58 75 0 75 C0 50.25 0 25.5 0 0 Z " transform="translate(671,753)" style="fill: #081730;"/><path d="M0 0 C4.95 0 9.9 0 15 0 C15 26.4 15 52.8 15 80 C10.05 80 5.1 80 0 80 C-0.495 76.04 -0.495 76.04 -1 72 C-1.721875 72.928125 -2.44375 73.85625 -3.1875 74.8125 C-6.16485508 78.64052796 -9.26410854 80.75884362 -14.12109375 81.43359375 C-22.64910421 81.44363852 -26.51780103 80.4012176 -32.6875 74.375 C-38.94561173 66.23945476 -38.76070185 55.79403634 -38 46 C-36.74396799 38.22306849 -33.50822847 31.5702749 -27.25390625 26.6171875 C-21.59427745 23.25200281 -15.40845366 23.09579352 -9 24 C-5.93319538 25.16706046 -3.3517297 26.6482703 -1 29 C-0.67 19.43 -0.34 9.86 0 0 Z " transform="translate(581,748)" style="fill: #081730;"/><path d="M0 0 C5.89763377 4.41956675 8.78413857 10.7917866 10.19921875 17.8671875 C10.95405813 26.58094731 9.51993276 33.31501771 5.57421875 41.0546875 C0.42430883 47.15326504 -6.67651862 51.470222 -14.65625 52.23828125 C-24.5922273 52.52183964 -32.08291488 51.87712756 -39.8515625 45.0703125 C-46.01500889 38.68993321 -47.9073199 32.23163557 -48.23828125 23.4921875 C-47.96860243 14.60315859 -46.12705722 7.60272379 -39.55078125 1.3671875 C-27.92089821 -7.81628002 -12.53631641 -7.88618603 0 0 Z " transform="translate(525.80078125,777.1328125)" style="fill: #081730;"/><path d="M0 0 C4.95 0 9.9 0 15 0 C15.33 10.89 15.66 21.78 16 33 C18.97 29.535 18.97 29.535 22 26 C27.23118806 23.04572531 33.1598661 23.35109623 39 24 C43.03654111 25.9828623 45.6500056 28.16579861 48 32 C48.94337376 34.83012127 49.12172829 36.54299918 49.11352539 39.47143555 C49.11344986 40.37214279 49.11337433 41.27285004 49.11329651 42.20085144 C49.10813522 43.16968765 49.10297394 44.13852386 49.09765625 45.13671875 C49.0962413 46.13129593 49.09482635 47.12587311 49.09336853 48.15058899 C49.08776761 51.32958982 49.07521496 54.50852043 49.0625 57.6875 C49.05748512 59.84179586 49.05292219 61.99609282 49.04882812 64.15039062 C49.03779787 69.43362084 49.02053262 74.71679851 49 80 C44.05 80 39.1 80 34 80 C33.97494385 78.82904785 33.9498877 77.6580957 33.92407227 76.45166016 C33.83006297 72.11674622 33.72982659 67.78199496 33.62768555 63.44726562 C33.58431211 61.56937458 33.54263882 59.69144348 33.50268555 57.81347656 C33.44504124 55.1177156 33.38133019 52.42215673 33.31640625 49.7265625 C33.29969376 48.88380768 33.28298126 48.04105286 33.26576233 47.17276001 C33.26763856 42.9513339 33.26763856 42.9513339 32 39 C26.36818327 38.38423037 26.36818327 38.38423037 21.1015625 40.04296875 C18.96070232 41.82353782 17.25242888 43.49514224 16 46 C15.84355828 48.55106029 15.74178611 51.07918663 15.68359375 53.6328125 C15.66281265 54.38464813 15.64203156 55.13648376 15.62062073 55.91110229 C15.55517295 58.31564085 15.49626262 60.72028967 15.4375 63.125 C15.39431023 64.75391771 15.35069579 66.38282422 15.30664062 68.01171875 C15.19869615 72.00770106 15.09958802 76.00376564 15 80 C10.05 80 5.1 80 0 80 C0 53.6 0 27.2 0 0 Z " transform="translate(294,748)" style="fill: #081730;"/><path d="M0 0 C6.0327193 5.42212018 10.05081348 11.83699589 11 20 C11 23.3 11 26.6 11 30 C-1.54 30 -14.08 30 -27 30 C-23.79291667 37.54516756 -23.79291667 37.54516756 -18 41 C-8.48734921 44.00063481 1.79286273 41.98609857 11 39 C11 42.96 11 46.92 11 51 C-2.58665962 54.85794039 -17.22570896 57.70618121 -30.30859375 50.77734375 C-36.26784682 46.73316255 -40.72215932 40.83352203 -43 34 C-43.72828213 24.25142347 -44.27912703 15.10357072 -38 7 C-28.9950256 -3.08019522 -12.13626784 -8.16340886 0 0 Z " transform="translate(649,775)" style="fill: #081730;"/><path d="M0 0 C5.6875667 3.38613009 9.00360619 7.23883657 11.1875 13.5 C12.375 18.875 12.375 18.875 12.375 30.875 C0.165 30.875 -12.045 30.875 -24.625 30.875 C-21.62384804 38.15668045 -21.62384804 38.15668045 -15.625 41.875 C-6.33095733 44.76733693 3.26939695 42.30702116 12.375 39.875 C12.375 43.835 12.375 47.795 12.375 51.875 C0.36753867 56.24134958 -15.71142511 57.84719272 -27.625 52.375 C-32.53598502 49.3648135 -35.88235912 45.92723319 -38.625 40.875 C-39.12966797 39.96814453 -39.12966797 39.96814453 -39.64453125 39.04296875 C-43.13427028 31.47390008 -42.8120603 22.21845839 -40 14.5 C-36.35436381 6.64786052 -31.66478766 2.06348722 -23.625 -1.125 C-16.31408428 -3.56197191 -6.9780142 -3.28377139 0 0 Z " transform="translate(772.625,774.125)" style="fill: #081730;"/><path d="M0 0 C6.22163347 4.1710054 10.0021189 10.00298041 11.7421875 17.16796875 C11.7421875 21.78796875 11.7421875 26.40796875 11.7421875 31.16796875 C-0.4678125 31.16796875 -12.6778125 31.16796875 -25.2578125 31.16796875 C-22.05072917 38.71313631 -22.05072917 38.71313631 -16.2578125 42.16796875 C-9.04471184 44.31077271 -1.68665888 43.29460373 5.515625 41.60546875 C7.7421875 41.16796875 7.7421875 41.16796875 11.7421875 41.16796875 C11.7421875 44.79796875 11.7421875 48.42796875 11.7421875 52.16796875 C0.50687425 56.53725724 -12.68084406 57.93137954 -24.2578125 54.16796875 C-31.80849052 50.30873332 -37.99082521 44.95697955 -40.75 36.6953125 C-42.63001674 27.3386138 -42.32178176 17.432607 -37.2578125 9.16796875 C-29.09452035 -2.04843796 -12.67605356 -5.79399015 0 0 Z " transform="translate(396.2578125,773.83203125)" style="fill: #081730;"/><path d="M0 0 C0 3.96 0 7.92 0 12 C-1.381875 11.690625 -2.76375 11.38125 -4.1875 11.0625 C-17.92215297 8.30973147 -17.92215297 8.30973147 -31 12 C-37.461304 17.31262773 -39.85801651 23.94267201 -41 32 C-41.81450714 41.47917798 -40.92464648 50.91004129 -34.75 58.5 C-29.76789438 63.55461028 -25.15903786 65.14320661 -18.125 65.375 C-13.29679593 65.2659565 -9.30999366 64.45429913 -4.83984375 62.65625 C-3 62 -3 62 0 62 C0 65.63 0 69.26 0 73 C-11.58531989 76.97705011 -25.19040543 79.86248787 -37.046875 75.04296875 C-45.85484982 70.3395102 -52.39318045 63.35568039 -56 54 C-59.65681691 41.43051105 -59.42338842 28.05570553 -54 16 C-52.28278624 13.00106185 -50.37360748 10.50547456 -48 8 C-47.48695313 7.44699219 -46.97390625 6.89398437 -46.4453125 6.32421875 C-34.41346548 -5.27586342 -15.0870122 -3.82530735 0 0 Z " transform="translate(473,753)" style="fill: #081730;"/><path d="M0 0 C5.28 0 10.56 0 16 0 C21.71567187 10.51275362 26.997923 21.13112525 32 32 C34.57235551 29.42764449 35.5353482 26.82977208 37.00390625 23.49609375 C37.28725327 22.85761002 37.57060028 22.21912628 37.86253357 21.56129456 C38.76690215 19.52193429 39.66508094 17.47992684 40.5625 15.4375 C41.46428461 13.39187154 42.36738874 11.34685223 43.2731781 9.30299377 C44.09338783 7.45128048 44.90922062 5.59763031 45.72485352 3.74389648 C47 1 47 1 48 0 C49.85287502 -0.07226502 51.70833878 -0.0838122 53.5625 -0.0625 C54.57441406 -0.05347656 55.58632813 -0.04445313 56.62890625 -0.03515625 C57.41136719 -0.02355469 58.19382812 -0.01195312 59 0 C55.65618246 8.74778224 51.77391947 17.24069265 47.875 25.75 C46.52936528 28.6898379 45.18438889 31.62997613 43.83984375 34.5703125 C43.50894241 35.29330536 43.17804108 36.01629822 42.83711243 36.76119995 C40.85773848 41.09414224 38.91476829 45.44094955 37.00390625 49.8046875 C36.56385254 50.80145508 36.12379883 51.79822266 35.67041016 52.82519531 C34.87785521 54.62500128 34.09420745 56.4287703 33.32177734 58.23730469 C30.44924194 64.71778627 27.03211728 70.04175759 21 73.9375 C15.37774828 76.0283147 8.88812358 75.22049839 3 75 C3 71.7 3 68.4 3 65 C3.80824219 64.97421875 4.61648438 64.9484375 5.44921875 64.921875 C12.02147931 64.63609321 12.02147931 64.63609321 18.0625 62.3125 C20.71914352 59.14166742 23.1741534 56.18066001 22.82958984 51.86621094 C21.62656365 47.70978732 19.74745752 43.95904176 17.8515625 40.078125 C17.43836761 39.218703 17.02517273 38.35928101 16.59945679 37.47381592 C15.2800035 34.72991785 13.95337346 31.98958964 12.625 29.25 C10.88179557 25.65400372 9.14589843 22.05460763 7.4140625 18.453125 C7.0170816 17.64031067 6.62010071 16.82749634 6.21109009 15.99005127 C3.69564005 10.7580711 1.73526657 5.54150146 0 0 Z " transform="translate(792,773)" style="fill: #081730;"/><path d="M0 0 C19.8 0 39.6 0 60 0 C60 3.3 60 6.6 60 10 C52.74 10 45.48 10 38 10 C38 31.45 38 52.9 38 75 C32.72 75 27.44 75 22 75 C22 53.55 22 32.1 22 10 C14.74 10 7.48 10 0 10 C0 6.7 0 3.4 0 0 Z " transform="translate(226,753)" style="fill: #081730;"/><path d="M0 0 C6.27316794 2.35690067 12.02941464 2.70684158 18.68797302 2.74833679 C19.7628447 2.76628799 20.83771637 2.7842392 21.94515991 2.80273438 C25.34767337 2.85652336 28.75004909 2.8906324 32.15281677 2.92411804 C34.47249727 2.9573188 36.79215966 2.99181098 39.11180115 3.02763367 C44.77118274 3.11223151 50.43058287 3.18071316 56.09031677 3.23661804 C56.09031677 3.56661804 56.09031677 3.89661804 56.09031677 4.23661804 C42.23031677 4.56661804 28.37031677 4.89661804 14.09031677 5.23661804 C18.54531677 7.21661804 18.54531677 7.21661804 23.09031677 9.23661804 C22.43031677 9.56661804 21.77031677 9.89661804 21.09031677 10.23661804 C19.34720266 9.65011492 17.62639786 8.9968858 15.91844177 8.31474304 C8.50013792 5.738512 1.6202204 5.78332408 -6.15968323 5.98661804 C-7.50210401 6.00674624 -8.84455449 6.02498567 -10.18702698 6.04130554 C-13.42869485 6.08794825 -16.66878379 6.15338672 -19.90968323 6.23661804 C-19.90968323 5.90661804 -19.90968323 5.57661804 -19.90968323 5.23661804 C-11.49468323 4.24661804 -11.49468323 4.24661804 -2.90968323 3.23661804 C-4.97218323 2.78286804 -7.03468323 2.32911804 -9.15968323 1.86161804 C-10.8999176 1.47876648 -10.8999176 1.47876648 -12.67530823 1.08818054 C-14.08637752 0.8023987 -15.49787599 0.51873175 -16.90968323 0.23661804 C-17.72549866 0.06017761 -18.54131409 -0.11626282 -19.3818512 -0.29804993 C-28.21191244 -2.02072445 -36.9526451 -2.13566314 -45.91603088 -2.13398743 C-48.50964622 -2.13833994 -51.10152562 -2.17471697 -53.69483948 -2.21260071 C-72.87863861 -2.34014878 -93.32084954 0.70665131 -107.90968323 14.23661804 C-115.65809819 24.13155337 -114.86377824 38.19159901 -115.60133362 50.13969421 C-118.35849652 94.68416613 -118.35849652 94.68416613 -130.15187073 106.69364929 C-136.3886305 112.16813843 -142.76788111 117.00443901 -149.90968323 121.23661804 C-148.78767968 117.8706074 -147.9055312 117.17418553 -145.22218323 114.98661804 C-138.84296222 109.49119675 -134.61697962 104.13528763 -130.72218323 96.67411804 C-130.38896057 96.05609314 -130.05573792 95.43806824 -129.7124176 94.80131531 C-122.91065571 81.18239518 -123.28586205 65.80697861 -122.82569885 50.96537781 C-121.79147601 19.24633788 -121.79147601 19.24633788 -111.01124573 8.31083679 C-82.27736489 -15.7764871 -32.83116063 -13.12401728 0 0 Z " transform="translate(505.90968322753906,269.7633819580078)" style="fill: #fff;"/><path d="M0 0 C3.49546861 0.0333962 5.51336933 0.41672872 8.25 2.625 C13.10260067 7.83266902 13.17705961 11.90110696 13.1875 18.75 C13.21199219 19.58789062 13.23648438 20.42578125 13.26171875 21.2890625 C13.2926279 27.8418013 11.54870736 31.33476959 7.125 36.25 C3.41863924 38.05309442 -0.15388476 38.02325959 -4.1875 37.375 C-8.32495228 34.99816571 -9.70588026 32.8072497 -11.1875 28.375 C-12.35150916 21.12810429 -13.16532932 13.28011147 -10.1875 6.375 C-7.625 3.375 -7.625 3.375 -5.1875 1.375 C-3.63766739 -0.17483261 -2.15081622 0.09367039 0 0 Z " transform="translate(506.1875,781.625)" style="fill: #081730;"/><path d="M0 0 C3.02648136 2.704159 3.26243333 3.04768843 3.62109375 6.82421875 C3.63699133 8.49478909 3.62028801 10.16592683 3.57421875 11.8359375 C3.59742188 12.66544922 3.620625 13.49496094 3.64453125 14.34960938 C3.59130215 19.9697153 2.33460628 23.03463345 -1.49902344 27.13745117 C-4.64193724 29.73534309 -6.54794025 30.53464895 -10.67578125 30.4609375 C-14.83248945 29.34753352 -15.90997551 28.09643886 -18.17578125 24.5234375 C-20.73926075 19.39647851 -19.9507816 11.32438984 -18.45703125 5.92578125 C-16.9898784 2.76075393 -15.47417561 0.78957301 -12.86328125 -1.5390625 C-8.05572425 -3.21611727 -4.50492194 -2.09453935 0 0 Z " transform="translate(578.17578125,785.4765625)" style="fill: #081730;"/><path d="M0 0 C12.54901961 0 12.54901961 0 18 4 C20.53063075 6.92604181 20.95487657 8.58636852 21.375 12.4375 C20.96325198 16.34910621 20.1413801 18.71145198 18 22 C12.92696028 25.55352075 5.83919705 24.10813328 0 24 C0 16.08 0 8.16 0 0 Z " transform="translate(686,794)" style="fill: #081730;"/><path d="M0 0 C12.24185013 -0.40357748 12.24185013 -0.40357748 17 3 C18.54983261 4.54983261 18.28132961 6.03668378 18.375 8.1875 C18.32643132 11.57651464 17.99519826 13.71189313 15.9375 16.4375 C10.82734435 20.89529535 6.68165693 21 0 21 C0 14.07 0 7.14 0 0 Z " transform="translate(686,763)" style="fill: #081730;"/><path d="M0 0 C2.94214318 1.30086496 3.83163498 2.39796197 6 5 C6.33 7.64 6.66 10.28 7 13 C-0.59 13 -8.18 13 -16 13 C-14.85279188 4.96954315 -14.85279188 4.96954315 -11 1 C-7.50018464 -0.74990768 -3.81877994 -0.551032 0 0 Z " transform="translate(638,782)" style="fill: #081730;"/><path d="M0 0 C3.48150734 2.07408948 5.70756254 4.12268763 7 8 C7 9.65 7 11.3 7 13 C-0.59 13 -8.18 13 -16 13 C-14.85279188 4.96954315 -14.85279188 4.96954315 -11 1 C-7.53749757 -0.73125121 -3.78591771 -0.47815224 0 0 Z " transform="translate(387,782)" style="fill: #081730;"/><path d="M0 0 C2.75569447 2.18159145 4.43588747 3.87177494 6 7 C6 8.98 6 10.96 6 13 C-1.59 13 -9.18 13 -17 13 C-15.90079845 6.40479072 -15.28337 5.49231488 -11 1 C-7.52736727 -0.73631636 -3.78806987 -0.60190402 0 0 Z " transform="translate(764,782)" style="fill: #081730;"/><path d="M0 0 C7.43743807 0.76939015 7.43743807 0.76939015 10.43945312 2 C15.40498744 3.39459878 20.16910943 3.35706843 25.3046875 3.4140625 C26.38380402 3.43342865 27.46292053 3.4527948 28.57473755 3.4727478 C32.00807895 3.53233942 35.44145424 3.57884761 38.875 3.625 C41.20834764 3.66319853 43.54168146 3.70225135 45.875 3.7421875 C51.58321032 3.83802417 57.29150444 3.92313112 63 4 C63 4.33 63 4.66 63 5 C49.14 5.33 35.28 5.66 21 6 C25.455 7.98 25.455 7.98 30 10 C29.34 10.33 28.68 10.66 28 11 C26.25688589 10.41349688 24.53608108 9.76026776 22.828125 9.078125 C15.40982115 6.50189396 8.52990363 6.54670604 0.75 6.75 C-0.59242079 6.7701282 -1.93487126 6.78836763 -3.27734375 6.8046875 C-6.51901162 6.8513302 -9.75910056 6.91676868 -13 7 C-13 6.67 -13 6.34 -13 6 C-4.585 5.01 -4.585 5.01 4 4 C2.68 3.67 1.36 3.34 0 3 C0 2.01 0 1.02 0 0 Z " transform="translate(499,269)" style="fill: #fff;"/><path d="M0 0 C0.33 0 0.66 0 1 0 C1 3.96 1 7.92 1 12 C-0.98 11.34 -2.96 10.68 -5 10 C-4.67 8.68 -4.34 7.36 -4 6 C-2.02 6.495 -2.02 6.495 0 7 C0 4.69 0 2.38 0 0 Z " transform="translate(416,481)" style="fill: #fff;"/><path d="M0 0 C0 0.99 0 1.98 0 3 C-1.49609375 4.4296875 -1.49609375 4.4296875 -3.4375 5.875 C-6.44951784 8.30048726 -6.44951784 8.30048726 -7.9375 11.875 C-7.958125 12.57625 -7.97875 13.2775 -8 14 C-8.33 14 -8.66 14 -9 14 C-9.34145336 10.32937634 -9.30049843 8.47857157 -7.3125 5.3125 C-5.01963194 3.01963194 -2.85814932 1.5084677 0 0 Z " transform="translate(413,289)" style="fill: #5F231E;"/><path d="M0 0 C0.66 0.33 1.32 0.66 2 1 C-1.63 4.63 -5.26 8.26 -9 12 C-9 8.00102358 -7.64683965 6.93298448 -5 4 C-3.36643049 2.62631655 -1.7074998 1.28062485 0 0 Z " transform="translate(400,274)" style="fill: #2C2A25;"/><path d="M0 0 C3.11547441 0.67883043 5.85137721 1.74106902 8.75 3.0625 C9.54921875 3.42472656 10.3484375 3.78695313 11.171875 4.16015625 C11.77515625 4.43730469 12.3784375 4.71445312 13 5 C11 6 11 6 8.1796875 5.22265625 C7.08914063 4.83980469 5.99859375 4.45695312 4.875 4.0625 C3.77929688 3.68222656 2.68359375 3.30195313 1.5546875 2.91015625 C0.71164062 2.60980469 -0.13140625 2.30945313 -1 2 C-0.67 1.34 -0.34 0.68 0 0 Z " transform="translate(516,274)" style="fill: #2E1F1B;"/><path d="M0 0 C2.64 0.33 5.28 0.66 8 1 C8 1.66 8 2.32 8 3 C5.36 3 2.72 3 0 3 C0 2.01 0 1.02 0 0 Z " transform="translate(499,269)" style="fill: #0D0B0A;"/><path d="M0 0 C0.33 0.99 0.66 1.98 1 3 C-3.455 5.97 -3.455 5.97 -8 9 C-6.90101298 5.70303895 -6.05402613 4.95329411 -3.4375 2.8125 C-2.79683594 2.28269531 -2.15617187 1.75289063 -1.49609375 1.20703125 C-0.75552734 0.60955078 -0.75552734 0.60955078 0 0 Z " transform="translate(364,382)" style="fill: #515150;"/><path d="M0 0 C2.475 0.495 2.475 0.495 5 1 C3.79618552 3.49361571 2.54571278 5.68143083 1 8 C0.67 5.36 0.34 2.72 0 0 Z " transform="translate(412,492)" style="fill: #fff;"/></svg>